<svg xmlns="http://www.w3.org/2000/svg" width="960" height="540" viewBox="0 0 960 540">
    <defs>
      <marker id="arrow" viewBox="0 0 10 10" refX="8" refY="5" markerWidth="7" markerHeight="7" orient="auto-start-reverse">
        <path d="M 0 0 L 10 5 L 0 10 z" fill="#2b9376"/>
      </marker>
      <linearGradient id="soft" x1="0" x2="1" y1="0" y2="1">
        <stop offset="0%" stop-color="#ffffff"/>
        <stop offset="100%" stop-color="#edf7f3"/>
      </linearGradient>
      <filter id="shadow" x="-20%" y="-20%" width="140%" height="140%">
        <feDropShadow dx="0" dy="6" stdDeviation="6" flood-color="#0c2820" flood-opacity=".16"/>
      </filter>
    </defs>
    
    <rect width="960" height="540" rx="26" fill="#f7fbf9"/>
    <circle cx="70" cy="64" r="34" fill="#c0ded5" opacity=".8"/>
    <circle cx="890" cy="470" r="58" fill="#f5ddc3" opacity=".55"/>
    <text x="480.0" y="74.0" text-anchor="middle" font-size="34" font-weight="700" fill="#0c2820"><tspan x="480.0" dy="0.0">案例 1：合金强度预测</tspan></text><line x1="170" y1="410" x2="790" y2="410" stroke="#0c2820" stroke-width="4"/><line x1="170" y1="155" x2="170" y2="410" stroke="#0c2820" stroke-width="4"/><rect x="220" y="348" width="70" height="62" rx="8" fill="#2b9376"/><text x="255.0" y="450.0" text-anchor="middle" font-size="20" font-weight="600" fill="#0c2820"><tspan x="255.0" dy="0.0">强度预测</tspan></text><rect x="342" y="282" width="70" height="128" rx="8" fill="#3d6fb6"/><text x="377.0" y="450.0" text-anchor="middle" font-size="20" font-weight="600" fill="#0c2820"><tspan x="377.0" dy="0.0">成分特征</tspan></text><rect x="464" y="318" width="70" height="92" rx="8" fill="#7a5ea8"/><text x="499.0" y="450.0" text-anchor="middle" font-size="20" font-weight="600" fill="#0c2820"><tspan x="499.0" dy="0.0">工艺参数</tspan></text><rect x="586" y="242" width="70" height="168" rx="8" fill="#f2a65a"/><text x="621.0" y="450.0" text-anchor="middle" font-size="20" font-weight="600" fill="#0c2820"><tspan x="621.0" dy="0.0">模型</tspan></text><rect x="708" y="272" width="70" height="138" rx="8" fill="#842741"/><text x="743.0" y="450.0" text-anchor="middle" font-size="20" font-weight="600" fill="#0c2820"><tspan x="743.0" dy="0.0">预测强度</tspan></text><path d="M220 338 C330 245 390 330 485 235 S650 290 735 205" fill="none" stroke="#842741" stroke-width="6" stroke-linecap="round"/></svg>
