<svg xmlns="http://www.w3.org/2000/svg" width="960" height="540" viewBox="0 0 960 540">
    <defs>
      <marker id="arrow" viewBox="0 0 10 10" refX="8" refY="5" markerWidth="7" markerHeight="7" orient="auto-start-reverse">
        <path d="M 0 0 L 10 5 L 0 10 z" fill="#2b9376"/>
      </marker>
      <linearGradient id="soft" x1="0" x2="1" y1="0" y2="1">
        <stop offset="0%" stop-color="#ffffff"/>
        <stop offset="100%" stop-color="#edf7f3"/>
      </linearGradient>
      <filter id="shadow" x="-20%" y="-20%" width="140%" height="140%">
        <feDropShadow dx="0" dy="6" stdDeviation="6" flood-color="#0c2820" flood-opacity=".16"/>
      </filter>
    </defs>
    
    <rect width="960" height="540" rx="26" fill="#f7fbf9"/>
    <circle cx="70" cy="64" r="34" fill="#c0ded5" opacity=".8"/>
    <circle cx="890" cy="470" r="58" fill="#f5ddc3" opacity=".55"/>
    <text x="480.0" y="74.0" text-anchor="middle" font-size="34" font-weight="700" fill="#0c2820"><tspan x="480.0" dy="0.0">深度学习的基本思想</tspan></text><circle cx="480" cy="278" r="74" fill="#27846a" filter="url(#shadow)"/><text x="480.0" y="270.0" text-anchor="middle" font-size="27" font-weight="700" fill="white"><tspan x="480.0" dy="0.0">层级特征</tspan></text><line x1="480" y1="278" x2="480.0" y2="93.0" stroke="#c0ded5" stroke-width="4"/><circle cx="480.0" cy="93.0" r="58" fill="white" stroke="#2b9376" stroke-width="4" filter="url(#shadow)"/><text x="480.0" y="87.0" text-anchor="middle" font-size="24" font-weight="700" fill="#0c2820"><tspan x="480.0" dy="0.0">原始输入</tspan></text><line x1="480" y1="278" x2="665.0" y2="278.0" stroke="#c0ded5" stroke-width="4"/><circle cx="665.0" cy="278.0" r="58" fill="white" stroke="#3d6fb6" stroke-width="4" filter="url(#shadow)"/><text x="665.0" y="272.0" text-anchor="middle" font-size="24" font-weight="700" fill="#0c2820"><tspan x="665.0" dy="0.0">低级特征</tspan></text><line x1="480" y1="278" x2="480.0" y2="463.0" stroke="#c0ded5" stroke-width="4"/><circle cx="480.0" cy="463.0" r="58" fill="white" stroke="#7a5ea8" stroke-width="4" filter="url(#shadow)"/><text x="480.0" y="457.0" text-anchor="middle" font-size="24" font-weight="700" fill="#0c2820"><tspan x="480.0" dy="0.0">高级表示</tspan></text><line x1="480" y1="278" x2="295.0" y2="278.0" stroke="#c0ded5" stroke-width="4"/><circle cx="295.0" cy="278.0" r="58" fill="white" stroke="#f2a65a" stroke-width="4" filter="url(#shadow)"/><text x="295.0" y="272.0" text-anchor="middle" font-size="24" font-weight="700" fill="#0c2820"><tspan x="295.0" dy="0.0">任务输出</tspan></text></svg>
