<svg xmlns="http://www.w3.org/2000/svg" width="960" height="540" viewBox="0 0 960 540">
    <defs>
      <marker id="arrow" viewBox="0 0 10 10" refX="8" refY="5" markerWidth="7" markerHeight="7" orient="auto-start-reverse">
        <path d="M 0 0 L 10 5 L 0 10 z" fill="#2b9376"/>
      </marker>
      <linearGradient id="soft" x1="0" x2="1" y1="0" y2="1">
        <stop offset="0%" stop-color="#ffffff"/>
        <stop offset="100%" stop-color="#edf7f3"/>
      </linearGradient>
      <filter id="shadow" x="-20%" y="-20%" width="140%" height="140%">
        <feDropShadow dx="0" dy="6" stdDeviation="6" flood-color="#0c2820" flood-opacity=".16"/>
      </filter>
    </defs>
    
    <rect width="960" height="540" rx="26" fill="#f7fbf9"/>
    <circle cx="70" cy="64" r="34" fill="#c0ded5" opacity=".8"/>
    <circle cx="890" cy="470" r="58" fill="#f5ddc3" opacity=".55"/>
    <text x="480.0" y="74.0" text-anchor="middle" font-size="34" font-weight="700" fill="#0c2820"><tspan x="480.0" dy="0.0">案例 2：显微组织图像</tspan><tspan x="480.0" dy="36.7">识别</tspan></text><ellipse cx="145" cy="145" rx="28" ry="20" fill="#c0ded5" stroke="white" stroke-width="3"/><ellipse cx="215" cy="145" rx="32" ry="23" fill="#d8efe8" stroke="white" stroke-width="3"/><ellipse cx="285" cy="145" rx="36" ry="26" fill="#b8d8cf" stroke="white" stroke-width="3"/><ellipse cx="355" cy="145" rx="28" ry="29" fill="#e8d0b4" stroke="white" stroke-width="3"/><ellipse cx="425" cy="145" rx="32" ry="20" fill="#c6d7ef" stroke="white" stroke-width="3"/><ellipse cx="495" cy="145" rx="36" ry="23" fill="#c0ded5" stroke="white" stroke-width="3"/><ellipse cx="565" cy="145" rx="28" ry="26" fill="#d8efe8" stroke="white" stroke-width="3"/><ellipse cx="145" cy="199" rx="32" ry="29" fill="#b8d8cf" stroke="white" stroke-width="3"/><ellipse cx="215" cy="199" rx="36" ry="20" fill="#e8d0b4" stroke="white" stroke-width="3"/><ellipse cx="285" cy="199" rx="28" ry="23" fill="#c6d7ef" stroke="white" stroke-width="3"/><ellipse cx="355" cy="199" rx="32" ry="26" fill="#c0ded5" stroke="white" stroke-width="3"/><ellipse cx="425" cy="199" rx="36" ry="29" fill="#d8efe8" stroke="white" stroke-width="3"/><ellipse cx="495" cy="199" rx="28" ry="20" fill="#b8d8cf" stroke="white" stroke-width="3"/><ellipse cx="565" cy="199" rx="32" ry="23" fill="#e8d0b4" stroke="white" stroke-width="3"/><ellipse cx="145" cy="253" rx="36" ry="26" fill="#c6d7ef" stroke="white" stroke-width="3"/><ellipse cx="215" cy="253" rx="28" ry="29" fill="#c0ded5" stroke="white" stroke-width="3"/><ellipse cx="285" cy="253" rx="32" ry="20" fill="#d8efe8" stroke="white" stroke-width="3"/><ellipse cx="355" cy="253" rx="36" ry="23" fill="#b8d8cf" stroke="white" stroke-width="3"/><ellipse cx="425" cy="253" rx="28" ry="26" fill="#e8d0b4" stroke="white" stroke-width="3"/><ellipse cx="495" cy="253" rx="32" ry="29" fill="#c6d7ef" stroke="white" stroke-width="3"/><ellipse cx="565" cy="253" rx="36" ry="20" fill="#c0ded5" stroke="white" stroke-width="3"/><ellipse cx="145" cy="307" rx="28" ry="23" fill="#d8efe8" stroke="white" stroke-width="3"/><ellipse cx="215" cy="307" rx="32" ry="26" fill="#b8d8cf" stroke="white" stroke-width="3"/><ellipse cx="285" cy="307" rx="36" ry="29" fill="#e8d0b4" stroke="white" stroke-width="3"/><ellipse cx="355" cy="307" rx="28" ry="20" fill="#c6d7ef" stroke="white" stroke-width="3"/><ellipse cx="425" cy="307" rx="32" ry="23" fill="#c0ded5" stroke="white" stroke-width="3"/><ellipse cx="495" cy="307" rx="36" ry="26" fill="#d8efe8" stroke="white" stroke-width="3"/><ellipse cx="565" cy="307" rx="28" ry="29" fill="#b8d8cf" stroke="white" stroke-width="3"/><ellipse cx="145" cy="361" rx="32" ry="20" fill="#e8d0b4" stroke="white" stroke-width="3"/><ellipse cx="215" cy="361" rx="36" ry="23" fill="#c6d7ef" stroke="white" stroke-width="3"/><ellipse cx="285" cy="361" rx="28" ry="26" fill="#c0ded5" stroke="white" stroke-width="3"/><ellipse cx="355" cy="361" rx="32" ry="29" fill="#d8efe8" stroke="white" stroke-width="3"/><ellipse cx="425" cy="361" rx="36" ry="20" fill="#b8d8cf" stroke="white" stroke-width="3"/><ellipse cx="495" cy="361" rx="28" ry="23" fill="#e8d0b4" stroke="white" stroke-width="3"/><ellipse cx="565" cy="361" rx="32" ry="26" fill="#c6d7ef" stroke="white" stroke-width="3"/><ellipse cx="145" cy="415" rx="36" ry="29" fill="#c0ded5" stroke="white" stroke-width="3"/><ellipse cx="215" cy="415" rx="28" ry="20" fill="#d8efe8" stroke="white" stroke-width="3"/><ellipse cx="285" cy="415" rx="32" ry="23" fill="#b8d8cf" stroke="white" stroke-width="3"/><ellipse cx="355" cy="415" rx="36" ry="26" fill="#e8d0b4" stroke="white" stroke-width="3"/><ellipse cx="425" cy="415" rx="28" ry="29" fill="#c6d7ef" stroke="white" stroke-width="3"/><ellipse cx="495" cy="415" rx="32" ry="20" fill="#c0ded5" stroke="white" stroke-width="3"/><ellipse cx="565" cy="415" rx="36" ry="23" fill="#d8efe8" stroke="white" stroke-width="3"/><rect x="665.0" y="170.0" width="180.0" height="74.0" rx="18" fill="white" stroke="#3d6fb6" stroke-width="3" filter="url(#shadow)"/><text x="755.0" y="204.0" text-anchor="middle" font-size="26" font-weight="700" fill="#0c2820"><tspan x="755.0" dy="0.0">图像识别</tspan></text><rect x="665.0" y="285.0" width="180.0" height="74.0" rx="18" fill="white" stroke="#7a5ea8" stroke-width="3" filter="url(#shadow)"/><text x="755.0" y="319.0" text-anchor="middle" font-size="26" font-weight="700" fill="#0c2820"><tspan x="755.0" dy="0.0">显微图</tspan></text><rect x="665.0" y="400.0" width="180.0" height="74.0" rx="18" fill="white" stroke="#2b9376" stroke-width="3" filter="url(#shadow)"/><text x="755.0" y="434.0" text-anchor="middle" font-size="26" font-weight="700" fill="#0c2820"><tspan x="755.0" dy="0.0">分割</tspan></text><line x1="570.0" y1="270.0" x2="650.0" y2="285.0" stroke="#2b9376" stroke-width="5" stroke-linecap="round" marker-end="url(#arrow)"/></svg>
