<svg xmlns="http://www.w3.org/2000/svg" width="960" height="540" viewBox="0 0 960 540">
    <defs>
      <marker id="arrow" viewBox="0 0 10 10" refX="8" refY="5" markerWidth="7" markerHeight="7" orient="auto-start-reverse">
        <path d="M 0 0 L 10 5 L 0 10 z" fill="#2b9376"/>
      </marker>
      <linearGradient id="soft" x1="0" x2="1" y1="0" y2="1">
        <stop offset="0%" stop-color="#ffffff"/>
        <stop offset="100%" stop-color="#edf7f3"/>
      </linearGradient>
      <filter id="shadow" x="-20%" y="-20%" width="140%" height="140%">
        <feDropShadow dx="0" dy="6" stdDeviation="6" flood-color="#0c2820" flood-opacity=".16"/>
      </filter>
    </defs>
    
    <rect width="960" height="540" rx="26" fill="#f7fbf9"/>
    <circle cx="70" cy="64" r="34" fill="#c0ded5" opacity=".8"/>
    <circle cx="890" cy="470" r="58" fill="#f5ddc3" opacity=".55"/>
    <text x="480.0" y="82.0" text-anchor="middle" font-size="34" font-weight="700" fill="#0c2820"><tspan x="480.0" dy="0.0">4V 之四：Value</tspan><tspan x="480.0" dy="36.7">价值性</tspan></text><rect x="36.5" y="238.0" width="155.0" height="86.0" rx="18" fill="white" stroke="#2b9376" stroke-width="3" filter="url(#shadow)"/><text x="114.0" y="278.0" text-anchor="middle" font-size="26" font-weight="700" fill="#0c2820"><tspan x="114.0" dy="0.0">价值挖掘</tspan></text><line x1="196.5" y1="281.0" x2="215.5" y2="281.0" stroke="#2b9376" stroke-width="5" stroke-linecap="round" marker-end="url(#arrow)"/><rect x="219.5" y="238.0" width="155.0" height="86.0" rx="18" fill="white" stroke="#3d6fb6" stroke-width="3" filter="url(#shadow)"/><text x="297.0" y="278.0" text-anchor="middle" font-size="26" font-weight="700" fill="#0c2820"><tspan x="297.0" dy="0.0">原始数据</tspan></text><line x1="379.5" y1="281.0" x2="398.5" y2="281.0" stroke="#2b9376" stroke-width="5" stroke-linecap="round" marker-end="url(#arrow)"/><rect x="402.5" y="238.0" width="155.0" height="86.0" rx="18" fill="white" stroke="#7a5ea8" stroke-width="3" filter="url(#shadow)"/><text x="480.0" y="278.0" text-anchor="middle" font-size="26" font-weight="700" fill="#0c2820"><tspan x="480.0" dy="0.0">特征</tspan></text><line x1="562.5" y1="281.0" x2="581.5" y2="281.0" stroke="#2b9376" stroke-width="5" stroke-linecap="round" marker-end="url(#arrow)"/><rect x="585.5" y="238.0" width="155.0" height="86.0" rx="18" fill="white" stroke="#f2a65a" stroke-width="3" filter="url(#shadow)"/><text x="663.0" y="278.0" text-anchor="middle" font-size="26" font-weight="700" fill="#0c2820"><tspan x="663.0" dy="0.0">模型</tspan></text><line x1="745.5" y1="281.0" x2="764.5" y2="281.0" stroke="#2b9376" stroke-width="5" stroke-linecap="round" marker-end="url(#arrow)"/><rect x="768.5" y="238.0" width="155.0" height="86.0" rx="18" fill="white" stroke="#842741" stroke-width="3" filter="url(#shadow)"/><text x="846.0" y="278.0" text-anchor="middle" font-size="26" font-weight="700" fill="#0c2820"><tspan x="846.0" dy="0.0">决策</tspan></text><path d="M170 390 C300 455 650 455 805 390" fill="none" stroke="#c0ded5" stroke-width="8" stroke-linecap="round"/></svg>
