<svg xmlns="http://www.w3.org/2000/svg" width="960" height="540" viewBox="0 0 960 540">
    <defs>
      <marker id="arrow" viewBox="0 0 10 10" refX="8" refY="5" markerWidth="7" markerHeight="7" orient="auto-start-reverse">
        <path d="M 0 0 L 10 5 L 0 10 z" fill="#2b9376"/>
      </marker>
      <linearGradient id="soft" x1="0" x2="1" y1="0" y2="1">
        <stop offset="0%" stop-color="#ffffff"/>
        <stop offset="100%" stop-color="#edf7f3"/>
      </linearGradient>
      <filter id="shadow" x="-20%" y="-20%" width="140%" height="140%">
        <feDropShadow dx="0" dy="6" stdDeviation="6" flood-color="#0c2820" flood-opacity=".16"/>
      </filter>
    </defs>
    
    <rect width="960" height="540" rx="26" fill="#f7fbf9"/>
    <circle cx="70" cy="64" r="34" fill="#c0ded5" opacity=".8"/>
    <circle cx="890" cy="470" r="58" fill="#f5ddc3" opacity=".55"/>
    <text x="480.0" y="74.0" text-anchor="middle" font-size="34" font-weight="700" fill="#0c2820"><tspan x="480.0" dy="0.0">为什么材料 AI 需要</tspan><tspan x="480.0" dy="36.7">平台化</tspan></text><circle cx="480" cy="278" r="74" fill="#27846a" filter="url(#shadow)"/><text x="480.0" y="270.0" text-anchor="middle" font-size="27" font-weight="700" fill="white"><tspan x="480.0" dy="0.0">平台架构</tspan></text><line x1="480" y1="278" x2="480.0" y2="93.0" stroke="#c0ded5" stroke-width="4"/><circle cx="480.0" cy="93.0" r="58" fill="white" stroke="#2b9376" stroke-width="4" filter="url(#shadow)"/><text x="480.0" y="87.0" text-anchor="middle" font-size="24" font-weight="700" fill="#0c2820"><tspan x="480.0" dy="0.0">数据库</tspan></text><line x1="480" y1="278" x2="655.9454555146034" y2="220.83185604063473" stroke="#c0ded5" stroke-width="4"/><circle cx="655.9454555146034" cy="220.83185604063473" r="58" fill="white" stroke="#3d6fb6" stroke-width="4" filter="url(#shadow)"/><text x="655.9" y="214.8" text-anchor="middle" font-size="24" font-weight="700" fill="#0c2820"><tspan x="655.9" dy="0.0">计算</tspan></text><line x1="480" y1="278" x2="588.7402716741076" y2="427.66814395936524" stroke="#c0ded5" stroke-width="4"/><circle cx="588.7402716741076" cy="427.66814395936524" r="58" fill="white" stroke="#7a5ea8" stroke-width="4" filter="url(#shadow)"/><text x="588.7" y="421.7" text-anchor="middle" font-size="24" font-weight="700" fill="#0c2820"><tspan x="588.7" dy="0.0">模型服务</tspan></text><line x1="480" y1="278" x2="371.2597283258925" y2="427.66814395936524" stroke="#c0ded5" stroke-width="4"/><circle cx="371.2597283258925" cy="427.66814395936524" r="58" fill="white" stroke="#f2a65a" stroke-width="4" filter="url(#shadow)"/><text x="371.3" y="421.7" text-anchor="middle" font-size="24" font-weight="700" fill="#0c2820"><tspan x="371.3" dy="0.0">实验接口</tspan></text><line x1="480" y1="278" x2="304.0545444853966" y2="220.83185604063476" stroke="#c0ded5" stroke-width="4"/><circle cx="304.0545444853966" cy="220.83185604063476" r="58" fill="white" stroke="#842741" stroke-width="4" filter="url(#shadow)"/><text x="304.1" y="214.8" text-anchor="middle" font-size="24" font-weight="700" fill="#0c2820"><tspan x="304.1" dy="0.0">知识库</tspan></text></svg>
