<svg xmlns="http://www.w3.org/2000/svg" width="960" height="540" viewBox="0 0 960 540">
    <defs>
      <marker id="arrow" viewBox="0 0 10 10" refX="8" refY="5" markerWidth="7" markerHeight="7" orient="auto-start-reverse">
        <path d="M 0 0 L 10 5 L 0 10 z" fill="#2b9376"/>
      </marker>
      <linearGradient id="soft" x1="0" x2="1" y1="0" y2="1">
        <stop offset="0%" stop-color="#ffffff"/>
        <stop offset="100%" stop-color="#edf7f3"/>
      </linearGradient>
      <filter id="shadow" x="-20%" y="-20%" width="140%" height="140%">
        <feDropShadow dx="0" dy="6" stdDeviation="6" flood-color="#0c2820" flood-opacity=".16"/>
      </filter>
    </defs>
    
    <rect width="960" height="540" rx="26" fill="#f7fbf9"/>
    <circle cx="70" cy="64" r="34" fill="#c0ded5" opacity=".8"/>
    <circle cx="890" cy="470" r="58" fill="#f5ddc3" opacity=".55"/>
    <text x="480.0" y="74.0" text-anchor="middle" font-size="34" font-weight="700" fill="#0c2820"><tspan x="480.0" dy="0.0">AI 可靠性的首要问题</tspan><tspan x="480.0" dy="36.7">：幻觉</tspan></text><rect x="122.0" y="152.0" width="176.0" height="76.0" rx="18" fill="white" stroke="#2b9376" stroke-width="3" filter="url(#shadow)"/><text x="210.0" y="187.0" text-anchor="middle" font-size="26" font-weight="700" fill="#0c2820"><tspan x="210.0" dy="0.0">AI 可靠性的首要问题</tspan><tspan x="210.0" dy="28.1">：幻觉</tspan></text><rect x="392.0" y="132.0" width="176.0" height="76.0" rx="18" fill="white" stroke="#3d6fb6" stroke-width="3" filter="url(#shadow)"/><text x="480.0" y="167.0" text-anchor="middle" font-size="26" font-weight="700" fill="#0c2820"><tspan x="480.0" dy="0.0">AI幻觉风险</tspan></text><rect x="662.0" y="152.0" width="176.0" height="76.0" rx="18" fill="white" stroke="#7a5ea8" stroke-width="3" filter="url(#shadow)"/><text x="750.0" y="187.0" text-anchor="middle" font-size="26" font-weight="700" fill="#0c2820"><tspan x="750.0" dy="0.0">concept</tspan></text><line x1="210.0" y1="232.0" x2="480.0" y2="128.0" stroke="#2b9376" stroke-width="5" stroke-linecap="round" marker-end="url(#arrow)"/><line x1="480.0" y1="212.0" x2="750.0" y2="148.0" stroke="#2b9376" stroke-width="5" stroke-linecap="round" marker-end="url(#arrow)"/></svg>
